# xmcd
#
# Track frame offsets:
#	150
#	24136
#	48080
#	66575
#	84102
#	96126
#	117984
#	133750
#	150537
#	166411
#	179723
#	197311
#
# Disc length: 2949 seconds
# Revision: 0
# Processed by: cddbd v1.5.2PL0 Copyright (c) Steve Scherf et al.
# Submitted via: dBpowerAMP V12.0
#
DISCID=930b830c
DTITLE=Mary Kaye - The Dawn And The Dusk
DYEAR=2013
DGENRE=Country
TTITLE0=The Prairie Preacher
TTITLE1=Solid Gone
TTITLE2=Wyoming Woman, Montana Man
TTITLE3=Arizona In Her Eyes
TTITLE4=Cooley Ranch Road
TTITLE5=Jealous Of The Moon
TTITLE6=Take Me Back To Texas
TTITLE7=Git Along Little Dogies
TTITLE8=Welcome To My World
TTITLE9=The Golden Thread
TTITLE10=Chasin' Down The Sun
TTITLE11=The Dawn And The Dusk
EXTD=
EXTT0=
EXTT1=
EXTT2=
EXTT3=
EXTT4=
EXTT5=
EXTT6=
EXTT7=
EXTT8=
EXTT9=
EXTT10=
EXTT11=
PLAYORDER=
